<svg width="24" height="24" viewBox="0 0 24 24" fill="none" xmlns="http://www.w3.org/2000/svg">
<path d="M8.56834 16.1207L4.81496 12.6453C4.71681 12.5533 4.59992 12.4803 4.47106 12.4304C4.3422 12.3806 4.20394 12.3549 4.06429 12.3549C3.92463 12.3549 3.78637 12.3806 3.65751 12.4304C3.52865 12.4803 3.41176 12.5533 3.31361 12.6453C3.21426 12.7362 3.13539 12.8444 3.08155 12.9637C3.02772 13.083 3 13.2111 3 13.3404C3 13.4697 3.02772 13.5977 3.08155 13.717C3.13539 13.8363 3.21426 13.9446 3.31361 14.0354L7.80694 18.1959C8.22517 18.5832 8.90078 18.5832 9.31902 18.1959L20.6864 7.68052C20.7857 7.58964 20.8646 7.48141 20.9184 7.36209C20.9723 7.24278 21 7.11476 21 6.98545C21 6.85614 20.9723 6.72812 20.9184 6.60881C20.8646 6.48949 20.7857 6.38126 20.6864 6.29038C20.5882 6.19839 20.4713 6.12536 20.3425 6.07551C20.2136 6.02567 20.0754 6 19.9357 6C19.7961 6 19.6578 6.02567 19.5289 6.07551C19.4001 6.12536 19.2832 6.19839 19.185 6.29038L8.56834 16.1207Z" fill="black"/>
</svg>
